<svg width="20" height="20" viewBox="0 0 20 20" fill="none" xmlns="http://www.w3.org/2000/svg">
<path fill-rule="evenodd" clip-rule="evenodd" d="M12.735 1.47856C12.8869 1.66708 12.9643 1.92147 13.1192 2.43027L16.5027 13.5451C15.2517 12.8961 13.8918 12.4281 12.4575 12.1756L10.2545 4.73097C10.2185 4.60916 10.1066 4.52559 9.9796 4.52559C9.85224 4.52559 9.74014 4.6096 9.70439 4.73183L7.52807 12.1718C6.08719 12.4232 4.72105 12.8921 3.46472 13.5434L6.86482 2.42769H6.86483C7.02019 1.91978 7.09786 1.66583 7.24974 1.47765C7.3838 1.31152 7.55819 1.1825 7.75627 1.10288C7.98064 1.0127 8.24621 1.0127 8.77735 1.0127H11.2059C11.7377 1.0127 12.0036 1.0127 12.2282 1.10307C12.4265 1.18285 12.6009 1.31213 12.735 1.47856Z" fill="url(#paint0_linear_216_1461)"/>
<path fill-rule="evenodd" clip-rule="evenodd" d="M13.1399 14.0743C12.5821 14.5513 11.4688 14.8765 10.1864 14.8765C8.61246 14.8765 7.29324 14.3865 6.94318 13.7275C6.81804 14.1052 6.78997 14.5375 6.78997 14.8136C6.78997 14.8136 6.70752 16.1694 7.65057 17.1125C7.65057 16.6228 8.04754 16.226 8.53721 16.226C9.37652 16.226 9.37557 16.9581 9.3748 17.5522C9.37479 17.57 9.37475 17.5877 9.37475 17.6052C9.37475 18.5069 9.92586 19.2799 10.7096 19.6058C10.5926 19.365 10.5269 19.0946 10.5269 18.8089C10.5269 17.9489 11.0318 17.6286 11.6186 17.2564C12.0855 16.9603 12.6042 16.6314 12.9617 15.9714C13.1482 15.6271 13.2541 15.2327 13.2541 14.8136C13.2541 14.5559 13.2141 14.3075 13.1399 14.0743Z" fill="#FF5D01"/>
<path fill-rule="evenodd" clip-rule="evenodd" d="M13.1399 14.0743C12.5821 14.5513 11.4688 14.8765 10.1864 14.8765C8.61246 14.8765 7.29324 14.3865 6.94318 13.7275C6.81804 14.1052 6.78997 14.5375 6.78997 14.8136C6.78997 14.8136 6.70752 16.1694 7.65057 17.1125C7.65057 16.6228 8.04754 16.226 8.53721 16.226C9.37652 16.226 9.37557 16.9581 9.3748 17.5522C9.37479 17.57 9.37475 17.5877 9.37475 17.6052C9.37475 18.5069 9.92586 19.2799 10.7096 19.6058C10.5926 19.365 10.5269 19.0946 10.5269 18.8089C10.5269 17.9489 11.0318 17.6286 11.6186 17.2564C12.0855 16.9603 12.6042 16.6314 12.9617 15.9714C13.1482 15.6271 13.2541 15.2327 13.2541 14.8136C13.2541 14.5559 13.2141 14.3075 13.1399 14.0743Z" fill="url(#paint1_linear_216_1461)"/>
<defs>
<linearGradient id="paint0_linear_216_1461" x1="10" y1="1" x2="9.98369" y2="13.5451" gradientUnits="userSpaceOnUse">
<stop stop-color="white"/>
<stop offset="1" stop-color="#150426"/>
</linearGradient>
<linearGradient id="paint1_linear_216_1461" x1="15.6513" y1="10.1946" x2="12.3488" y2="17.108" gradientUnits="userSpaceOnUse">
<stop stop-color="#FF1639"/>
<stop offset="1" stop-color="#FF1639" stop-opacity="0"/>
</linearGradient>
</defs>
</svg>
