<svg width="66" height="57" viewBox="0 0 66 57" fill="none" xmlns="http://www.w3.org/2000/svg">
<path d="M60.5 46C60.5 47.3261 59.9732 48.5979 59.0355 49.5355C58.0979 50.4732 56.8261 51 55.5 51H10.5C9.17392 51 7.90215 50.4732 6.96447 49.5355C6.02678 48.5979 5.5 47.3261 5.5 46V18.5C5.5 17.1739 6.02678 15.9021 6.96447 14.9645C7.90215 14.0268 9.17392 13.5 10.5 13.5H20.5L25.5 6H40.5L45.5 13.5H55.5C56.8261 13.5 58.0979 14.0268 59.0355 14.9645C59.9732 15.9021 60.5 17.1739 60.5 18.5V46Z" stroke="#FADB85" stroke-width="10.8084" stroke-linecap="round" stroke-linejoin="round"/>
<path d="M33 41C38.5228 41 43 36.5228 43 31C43 25.4772 38.5228 21 33 21C27.4772 21 23 25.4772 23 31C23 36.5228 27.4772 41 33 41Z" stroke="#FADB85" stroke-width="10.8084" stroke-linecap="round" stroke-linejoin="round"/>
</svg>
