<svg width="32" height="33" viewBox="0 0 32 33" fill="none" xmlns="http://www.w3.org/2000/svg">
<path d="M16.0036 8.29777C11.4632 8.29777 7.801 11.96 7.801 16.5003C7.801 21.0407 11.4632 24.7029 16.0036 24.7029C20.5439 24.7029 24.2061 21.0407 24.2061 16.5003C24.2061 11.96 20.5439 8.29777 16.0036 8.29777ZM16.0036 21.8331C13.0695 21.8331 10.6708 19.4416 10.6708 16.5003C10.6708 13.5591 13.0624 11.1676 16.0036 11.1676C18.9448 11.1676 21.3363 13.5591 21.3363 16.5003C21.3363 19.4416 18.9376 21.8331 16.0036 21.8331ZM26.4549 7.96224C26.4549 9.02594 25.5982 9.87546 24.5417 9.87546C23.478 9.87546 22.6284 9.0188 22.6284 7.96224C22.6284 6.90569 23.4851 6.04903 24.5417 6.04903C25.5982 6.04903 26.4549 6.90569 26.4549 7.96224ZM31.8876 9.90402C31.7662 7.34116 31.1808 5.071 29.3033 3.20062C27.4329 1.33023 25.1627 0.744843 22.5999 0.616344C19.9585 0.466427 12.0415 0.466427 9.40011 0.616344C6.8444 0.737704 4.57423 1.32309 2.69671 3.19348C0.819186 5.06386 0.240937 7.33402 0.112437 9.89688C-0.0374791 12.5383 -0.0374791 20.4553 0.112437 23.0967C0.233798 25.6595 0.819186 27.9297 2.69671 29.8001C4.57423 31.6704 6.83726 32.2558 9.40011 32.3843C12.0415 32.5342 19.9585 32.5342 22.5999 32.3843C25.1627 32.263 27.4329 31.6776 29.3033 29.8001C31.1737 27.9297 31.7591 25.6595 31.8876 23.0967C32.0375 20.4553 32.0375 12.5454 31.8876 9.90402ZM28.4752 25.9308C27.9184 27.33 26.8404 28.408 25.434 28.9719C23.3281 29.8072 18.3308 29.6144 16.0036 29.6144C13.6763 29.6144 8.67195 29.8001 6.57312 28.9719C5.1739 28.4151 4.09593 27.3371 3.53196 25.9308C2.69671 23.8248 2.88946 18.8276 2.88946 16.5003C2.88946 14.1731 2.70385 9.16871 3.53196 7.06989C4.08879 5.67067 5.16676 4.5927 6.57312 4.02872C8.67909 3.19348 13.6763 3.38623 16.0036 3.38623C18.3308 3.38623 23.3352 3.20062 25.434 4.02872C26.8332 4.58556 27.9112 5.66353 28.4752 7.06989C29.3104 9.17585 29.1177 14.1731 29.1177 16.5003C29.1177 18.8276 29.3104 23.832 28.4752 25.9308Z" fill="white"/>
</svg>
