<svg width="34" height="45" viewBox="0 0 34 45" fill="none" xmlns="http://www.w3.org/2000/svg">
<path d="M15.2657 44.0921C2.49541 25.5789 0.125 23.6789 0.125 16.875C0.125 7.55516 7.68016 0 17 0C26.3198 0 33.875 7.55516 33.875 16.875C33.875 23.6789 31.5046 25.5789 18.7343 44.0921C17.8962 45.3027 16.1037 45.3026 15.2657 44.0921ZM17 23.9062C20.8833 23.9062 24.0312 20.7583 24.0312 16.875C24.0312 12.9917 20.8833 9.84375 17 9.84375C13.1167 9.84375 9.96875 12.9917 9.96875 16.875C9.96875 20.7583 13.1167 23.9062 17 23.9062Z" fill="#FADB85"/>
</svg>
