<svg width="52" height="45" viewBox="0 0 52 45" fill="none" xmlns="http://www.w3.org/2000/svg">
<path d="M46.8928 22.5H38.8571V16.0714C38.8571 12.5257 41.7399 9.64286 45.2857 9.64286H46.0893C47.4252 9.64286 48.5 8.56808 48.5 7.23214V2.41071C48.5 1.07478 47.4252 0 46.0893 0H45.2857C36.4062 0 29.2143 7.19196 29.2143 16.0714V40.1786C29.2143 42.8404 31.3739 45 34.0357 45H46.8928C49.5547 45 51.7143 42.8404 51.7143 40.1786V27.3214C51.7143 24.6596 49.5547 22.5 46.8928 22.5ZM17.9643 22.5H9.92856V16.0714C9.92856 12.5257 12.8114 9.64286 16.3571 9.64286H17.1607C18.4966 9.64286 19.5714 8.56808 19.5714 7.23214V2.41071C19.5714 1.07478 18.4966 0 17.1607 0H16.3571C7.47767 0 0.285706 7.19196 0.285706 16.0714V40.1786C0.285706 42.8404 2.4453 45 5.10713 45H17.9643C20.6261 45 22.7857 42.8404 22.7857 40.1786V27.3214C22.7857 24.6596 20.6261 22.5 17.9643 22.5Z" fill="#FADB85"/>
</svg>
