<svg width="71" height="75" viewBox="0 0 71 75" fill="none" xmlns="http://www.w3.org/2000/svg">
<path d="M9.875 75C6.20833 68.9167 3.75 62.5417 2.5 55.875C1.25 49.125 1.125 42.4583 2.125 35.875C3.125 29.2917 5.25 23 8.5 17C11.8333 11 16.25 5.625 21.75 0.874992L29.375 5.49999C30.7083 6.41665 31.2917 7.54166 31.125 8.87499C30.9583 10.125 30.5 11.1667 29.75 12C27.75 14.5 25.9583 17.625 24.375 21.375C22.875 25.0417 21.875 29.0417 21.375 33.375C20.875 37.7083 21.0417 42.2083 21.875 46.875C22.7083 51.5417 24.4583 56.125 27.125 60.625C28.2917 62.5417 28.625 64.25 28.125 65.75C27.625 67.25 26.5417 68.3333 24.875 69L9.875 75ZM48.75 75C45.0833 68.9167 42.625 62.5417 41.375 55.875C40.125 49.125 40 42.4583 41 35.875C42 29.2917 44.125 23 47.375 17C50.7083 11 55.125 5.625 60.625 0.874992L68.25 5.49999C69.5833 6.41665 70.1667 7.54166 70 8.87499C69.8333 10.125 69.375 11.1667 68.625 12C66.625 14.5 64.8333 17.625 63.25 21.375C61.75 25.0417 60.75 29.0417 60.25 33.375C59.75 37.7083 59.9167 42.2083 60.75 46.875C61.5833 51.5417 63.3333 56.125 66 60.625C67.1667 62.5417 67.5 64.25 67 65.75C66.5 67.25 65.4167 68.3333 63.75 69L48.75 75Z" fill="#FADB85" fill-opacity="0.7"/>
</svg>
