<svg viewBox="0 0 341 348" fill="none" xmlns="http://www.w3.org/2000/svg">
<ellipse cx="186.639" cy="78" rx="5.3942" ry="5" fill="#B5B5B5" fill-opacity="0.61"/>
<ellipse cx="186.639" cy="101" rx="5.3942" ry="5" fill="#B5B5B5" fill-opacity="0.61"/>
<ellipse cx="186.639" cy="124" rx="5.3942" ry="5" fill="#B5B5B5" fill-opacity="0.61"/>
<ellipse cx="244.897" cy="78" rx="5.3942" ry="5" fill="#B5B5B5" fill-opacity="0.61"/>
<ellipse cx="244.897" cy="101" rx="5.3942" ry="5" fill="#B5B5B5" fill-opacity="0.61"/>
<ellipse cx="244.897" cy="124" rx="5.3942" ry="5" fill="#B5B5B5" fill-opacity="0.61"/>
<ellipse cx="215.768" cy="78" rx="5.3942" ry="5" fill="#B5B5B5" fill-opacity="0.61"/>
<ellipse cx="215.768" cy="101" rx="5.3942" ry="5" fill="#B5B5B5" fill-opacity="0.61"/>
<ellipse cx="215.768" cy="124" rx="5.3942" ry="5" fill="#B5B5B5" fill-opacity="0.61"/>
<ellipse cx="186.639" cy="151" rx="5.3942" ry="5" fill="#B5B5B5" fill-opacity="0.61"/>
<ellipse cx="186.639" cy="174" rx="5.3942" ry="5" fill="#B5B5B5" fill-opacity="0.61"/>
<ellipse cx="186.639" cy="197" rx="5.3942" ry="5" fill="#B5B5B5" fill-opacity="0.61"/>
<ellipse cx="244.897" cy="151" rx="5.3942" ry="5" fill="#B5B5B5" fill-opacity="0.61"/>
<ellipse cx="244.897" cy="174" rx="5.3942" ry="5" fill="#B5B5B5" fill-opacity="0.61"/>
<ellipse cx="244.897" cy="197" rx="5.3942" ry="5" fill="#B5B5B5" fill-opacity="0.61"/>
<ellipse cx="215.768" cy="151" rx="5.3942" ry="5" fill="#B5B5B5" fill-opacity="0.61"/>
<ellipse cx="215.768" cy="174" rx="5.3942" ry="5" fill="#B5B5B5" fill-opacity="0.61"/>
<ellipse cx="215.768" cy="197" rx="5.3942" ry="5" fill="#B5B5B5" fill-opacity="0.61"/>
<ellipse cx="186.639" cy="224" rx="5.3942" ry="5" fill="#B5B5B5" fill-opacity="0.61"/>
<ellipse cx="186.639" cy="247" rx="5.3942" ry="5" fill="#B5B5B5" fill-opacity="0.61"/>
<ellipse cx="186.639" cy="270" rx="5.3942" ry="5" fill="#B5B5B5" fill-opacity="0.61"/>
<ellipse cx="244.897" cy="224" rx="5.3942" ry="5" fill="#B5B5B5" fill-opacity="0.61"/>
<ellipse cx="244.897" cy="247" rx="5.3942" ry="5" fill="#B5B5B5" fill-opacity="0.61"/>
<ellipse cx="244.897" cy="270" rx="5.3942" ry="5" fill="#B5B5B5" fill-opacity="0.61"/>
<ellipse cx="215.768" cy="224" rx="5.3942" ry="5" fill="#B5B5B5" fill-opacity="0.61"/>
<ellipse cx="215.768" cy="247" rx="5.3942" ry="5" fill="#B5B5B5" fill-opacity="0.61"/>
<ellipse cx="215.768" cy="270" rx="5.3942" ry="5" fill="#B5B5B5" fill-opacity="0.61"/>
<ellipse cx="186.639" cy="297" rx="5.3942" ry="5" fill="#B5B5B5" fill-opacity="0.61"/>
<ellipse cx="186.639" cy="320" rx="5.3942" ry="5" fill="#B5B5B5" fill-opacity="0.61"/>
<ellipse cx="186.639" cy="343" rx="5.3942" ry="5" fill="#B5B5B5" fill-opacity="0.61"/>
<ellipse cx="244.897" cy="297" rx="5.3942" ry="5" fill="#B5B5B5" fill-opacity="0.61"/>
<ellipse cx="244.897" cy="320" rx="5.3942" ry="5" fill="#B5B5B5" fill-opacity="0.61"/>
<ellipse cx="244.897" cy="343" rx="5.3942" ry="5" fill="#B5B5B5" fill-opacity="0.61"/>
<ellipse cx="215.768" cy="297" rx="5.3942" ry="5" fill="#B5B5B5" fill-opacity="0.61"/>
<ellipse cx="215.768" cy="320" rx="5.3942" ry="5" fill="#B5B5B5" fill-opacity="0.61"/>
<ellipse cx="215.768" cy="343" rx="5.3942" ry="5" fill="#B5B5B5" fill-opacity="0.61"/>
<ellipse cx="5.3942" cy="78" rx="5.3942" ry="5" fill="#B5B5B5" fill-opacity="0.61"/>
<ellipse cx="5.3942" cy="101" rx="5.3942" ry="5" fill="#B5B5B5" fill-opacity="0.61"/>
<ellipse cx="5.3942" cy="124" rx="5.3942" ry="5" fill="#B5B5B5" fill-opacity="0.61"/>
<ellipse cx="63.6514" cy="78" rx="5.3942" ry="5" fill="#B5B5B5" fill-opacity="0.61"/>
<ellipse cx="63.6514" cy="101" rx="5.3942" ry="5" fill="#B5B5B5" fill-opacity="0.61"/>
<ellipse cx="63.6514" cy="124" rx="5.3942" ry="5" fill="#B5B5B5" fill-opacity="0.61"/>
<ellipse cx="34.523" cy="78" rx="5.3942" ry="5" fill="#B5B5B5" fill-opacity="0.61"/>
<ellipse cx="34.523" cy="101" rx="5.3942" ry="5" fill="#B5B5B5" fill-opacity="0.61"/>
<ellipse cx="34.523" cy="124" rx="5.3942" ry="5" fill="#B5B5B5" fill-opacity="0.61"/>
<ellipse cx="5.3942" cy="151" rx="5.3942" ry="5" fill="#B5B5B5" fill-opacity="0.61"/>
<ellipse cx="5.3942" cy="174" rx="5.3942" ry="5" fill="#B5B5B5" fill-opacity="0.61"/>
<ellipse cx="5.3942" cy="197" rx="5.3942" ry="5" fill="#B5B5B5" fill-opacity="0.61"/>
<ellipse cx="63.6514" cy="151" rx="5.3942" ry="5" fill="#B5B5B5" fill-opacity="0.61"/>
<ellipse cx="63.6514" cy="174" rx="5.3942" ry="5" fill="#B5B5B5" fill-opacity="0.61"/>
<ellipse cx="63.6514" cy="197" rx="5.3942" ry="5" fill="#B5B5B5" fill-opacity="0.61"/>
<ellipse cx="34.523" cy="151" rx="5.3942" ry="5" fill="#B5B5B5" fill-opacity="0.61"/>
<ellipse cx="34.523" cy="174" rx="5.3942" ry="5" fill="#B5B5B5" fill-opacity="0.61"/>
<ellipse cx="34.523" cy="197" rx="5.3942" ry="5" fill="#B5B5B5" fill-opacity="0.61"/>
<ellipse cx="5.3942" cy="224" rx="5.3942" ry="5" fill="#B5B5B5" fill-opacity="0.61"/>
<ellipse cx="5.3942" cy="247" rx="5.3942" ry="5" fill="#B5B5B5" fill-opacity="0.61"/>
<ellipse cx="5.3942" cy="270" rx="5.3942" ry="5" fill="#B5B5B5" fill-opacity="0.61"/>
<ellipse cx="63.6514" cy="224" rx="5.3942" ry="5" fill="#B5B5B5" fill-opacity="0.61"/>
<ellipse cx="63.6514" cy="247" rx="5.3942" ry="5" fill="#B5B5B5" fill-opacity="0.61"/>
<ellipse cx="63.6514" cy="270" rx="5.3942" ry="5" fill="#B5B5B5" fill-opacity="0.61"/>
<ellipse cx="34.523" cy="224" rx="5.3942" ry="5" fill="#B5B5B5" fill-opacity="0.61"/>
<ellipse cx="34.523" cy="247" rx="5.3942" ry="5" fill="#B5B5B5" fill-opacity="0.61"/>
<ellipse cx="34.523" cy="270" rx="5.3942" ry="5" fill="#B5B5B5" fill-opacity="0.61"/>
<ellipse cx="5.3942" cy="297" rx="5.3942" ry="5" fill="#B5B5B5" fill-opacity="0.61"/>
<ellipse cx="5.3942" cy="320" rx="5.3942" ry="5" fill="#B5B5B5" fill-opacity="0.61"/>
<ellipse cx="5.3942" cy="343" rx="5.3942" ry="5" fill="#B5B5B5" fill-opacity="0.61"/>
<ellipse cx="63.6514" cy="297" rx="5.3942" ry="5" fill="#B5B5B5" fill-opacity="0.61"/>
<ellipse cx="63.6514" cy="320" rx="5.3942" ry="5" fill="#B5B5B5" fill-opacity="0.61"/>
<ellipse cx="63.6514" cy="343" rx="5.3942" ry="5" fill="#B5B5B5" fill-opacity="0.61"/>
<ellipse cx="34.523" cy="297" rx="5.3942" ry="5" fill="#B5B5B5" fill-opacity="0.61"/>
<ellipse cx="34.523" cy="320" rx="5.3942" ry="5" fill="#B5B5B5" fill-opacity="0.61"/>
<ellipse cx="34.523" cy="343" rx="5.3942" ry="5" fill="#B5B5B5" fill-opacity="0.61"/>
<ellipse cx="5.3942" cy="5" rx="5.3942" ry="5" fill="#B5B5B5" fill-opacity="0.61"/>
<ellipse cx="5.3942" cy="28" rx="5.3942" ry="5" fill="#B5B5B5" fill-opacity="0.61"/>
<ellipse cx="5.3942" cy="51" rx="5.3942" ry="5" fill="#B5B5B5" fill-opacity="0.61"/>
<ellipse cx="63.6514" cy="5" rx="5.3942" ry="5" fill="#B5B5B5" fill-opacity="0.61"/>
<ellipse cx="63.6514" cy="28" rx="5.3942" ry="5" fill="#B5B5B5" fill-opacity="0.61"/>
<ellipse cx="63.6514" cy="51" rx="5.3942" ry="5" fill="#B5B5B5" fill-opacity="0.61"/>
<ellipse cx="34.523" cy="5" rx="5.3942" ry="5" fill="#B5B5B5" fill-opacity="0.61"/>
<ellipse cx="34.523" cy="28" rx="5.3942" ry="5" fill="#B5B5B5" fill-opacity="0.61"/>
<ellipse cx="34.523" cy="51" rx="5.3942" ry="5" fill="#B5B5B5" fill-opacity="0.61"/>
<ellipse cx="96.0168" cy="5" rx="5.3942" ry="5" fill="#B5B5B5" fill-opacity="0.61"/>
<ellipse cx="96.0168" cy="28" rx="5.3942" ry="5" fill="#B5B5B5" fill-opacity="0.61"/>
<ellipse cx="96.0168" cy="51" rx="5.3942" ry="5" fill="#B5B5B5" fill-opacity="0.61"/>
<ellipse cx="154.274" cy="5" rx="5.3942" ry="5" fill="#B5B5B5" fill-opacity="0.61"/>
<ellipse cx="154.274" cy="28" rx="5.3942" ry="5" fill="#B5B5B5" fill-opacity="0.61"/>
<ellipse cx="154.274" cy="51" rx="5.3942" ry="5" fill="#B5B5B5" fill-opacity="0.61"/>
<ellipse cx="125.146" cy="5" rx="5.3942" ry="5" fill="#B5B5B5" fill-opacity="0.61"/>
<ellipse cx="125.146" cy="28" rx="5.3942" ry="5" fill="#B5B5B5" fill-opacity="0.61"/>
<ellipse cx="125.146" cy="51" rx="5.3942" ry="5" fill="#B5B5B5" fill-opacity="0.61"/>
<ellipse cx="186.639" cy="5" rx="5.3942" ry="5" fill="#B5B5B5" fill-opacity="0.61"/>
<ellipse cx="186.639" cy="28" rx="5.3942" ry="5" fill="#B5B5B5" fill-opacity="0.61"/>
<ellipse cx="186.639" cy="51" rx="5.3942" ry="5" fill="#B5B5B5" fill-opacity="0.61"/>
<ellipse cx="244.897" cy="5" rx="5.3942" ry="5" fill="#B5B5B5" fill-opacity="0.61"/>
<ellipse cx="244.897" cy="28" rx="5.3942" ry="5" fill="#B5B5B5" fill-opacity="0.61"/>
<ellipse cx="244.897" cy="51" rx="5.3942" ry="5" fill="#B5B5B5" fill-opacity="0.61"/>
<ellipse cx="215.768" cy="5" rx="5.3942" ry="5" fill="#B5B5B5" fill-opacity="0.61"/>
<ellipse cx="215.768" cy="28" rx="5.3942" ry="5" fill="#B5B5B5" fill-opacity="0.61"/>
<ellipse cx="215.768" cy="51" rx="5.3942" ry="5" fill="#B5B5B5" fill-opacity="0.61"/>
<ellipse cx="277.262" cy="5" rx="5.3942" ry="5" fill="#B5B5B5" fill-opacity="0.61"/>
<ellipse cx="277.262" cy="28" rx="5.3942" ry="5" fill="#B5B5B5" fill-opacity="0.61"/>
<ellipse cx="277.262" cy="51" rx="5.3942" ry="5" fill="#B5B5B5" fill-opacity="0.61"/>
<ellipse cx="335.519" cy="5" rx="5.3942" ry="5" fill="#B5B5B5" fill-opacity="0.61"/>
<ellipse cx="335.519" cy="28" rx="5.3942" ry="5" fill="#B5B5B5" fill-opacity="0.61"/>
<ellipse cx="335.519" cy="51" rx="5.3942" ry="5" fill="#B5B5B5" fill-opacity="0.61"/>
<ellipse cx="306.391" cy="5" rx="5.3942" ry="5" fill="#B5B5B5" fill-opacity="0.61"/>
<ellipse cx="306.391" cy="28" rx="5.3942" ry="5" fill="#B5B5B5" fill-opacity="0.61"/>
<ellipse cx="306.391" cy="51" rx="5.3942" ry="5" fill="#B5B5B5" fill-opacity="0.61"/>
<ellipse cx="277.262" cy="78" rx="5.3942" ry="5" fill="#B5B5B5" fill-opacity="0.61"/>
<ellipse cx="277.262" cy="101" rx="5.3942" ry="5" fill="#B5B5B5" fill-opacity="0.61"/>
<ellipse cx="277.262" cy="124" rx="5.3942" ry="5" fill="#B5B5B5" fill-opacity="0.61"/>
<ellipse cx="335.519" cy="78" rx="5.3942" ry="5" fill="#B5B5B5" fill-opacity="0.61"/>
<ellipse cx="335.519" cy="101" rx="5.3942" ry="5" fill="#B5B5B5" fill-opacity="0.61"/>
<ellipse cx="335.519" cy="124" rx="5.3942" ry="5" fill="#B5B5B5" fill-opacity="0.61"/>
<ellipse cx="306.391" cy="78" rx="5.3942" ry="5" fill="#B5B5B5" fill-opacity="0.61"/>
<ellipse cx="306.391" cy="101" rx="5.3942" ry="5" fill="#B5B5B5" fill-opacity="0.61"/>
<ellipse cx="306.391" cy="124" rx="5.3942" ry="5" fill="#B5B5B5" fill-opacity="0.61"/>
<ellipse cx="277.262" cy="151" rx="5.3942" ry="5" fill="#B5B5B5" fill-opacity="0.61"/>
<ellipse cx="277.262" cy="174" rx="5.3942" ry="5" fill="#B5B5B5" fill-opacity="0.61"/>
<ellipse cx="277.262" cy="197" rx="5.3942" ry="5" fill="#B5B5B5" fill-opacity="0.61"/>
<ellipse cx="335.519" cy="151" rx="5.3942" ry="5" fill="#B5B5B5" fill-opacity="0.61"/>
<ellipse cx="335.519" cy="174" rx="5.3942" ry="5" fill="#B5B5B5" fill-opacity="0.61"/>
<ellipse cx="335.519" cy="197" rx="5.3942" ry="5" fill="#B5B5B5" fill-opacity="0.61"/>
<ellipse cx="306.391" cy="151" rx="5.3942" ry="5" fill="#B5B5B5" fill-opacity="0.61"/>
<ellipse cx="306.391" cy="174" rx="5.3942" ry="5" fill="#B5B5B5" fill-opacity="0.61"/>
<ellipse cx="306.391" cy="197" rx="5.3942" ry="5" fill="#B5B5B5" fill-opacity="0.61"/>
<ellipse cx="277.262" cy="224" rx="5.3942" ry="5" fill="#B5B5B5" fill-opacity="0.61"/>
<ellipse cx="277.262" cy="247" rx="5.3942" ry="5" fill="#B5B5B5" fill-opacity="0.61"/>
<ellipse cx="277.262" cy="270" rx="5.3942" ry="5" fill="#B5B5B5" fill-opacity="0.61"/>
<ellipse cx="335.519" cy="224" rx="5.3942" ry="5" fill="#B5B5B5" fill-opacity="0.61"/>
<ellipse cx="335.519" cy="247" rx="5.3942" ry="5" fill="#B5B5B5" fill-opacity="0.61"/>
<ellipse cx="335.519" cy="270" rx="5.3942" ry="5" fill="#B5B5B5" fill-opacity="0.61"/>
<ellipse cx="306.391" cy="224" rx="5.3942" ry="5" fill="#B5B5B5" fill-opacity="0.61"/>
<ellipse cx="306.391" cy="247" rx="5.3942" ry="5" fill="#B5B5B5" fill-opacity="0.61"/>
<ellipse cx="306.391" cy="270" rx="5.3942" ry="5" fill="#B5B5B5" fill-opacity="0.61"/>
<ellipse cx="277.262" cy="297" rx="5.3942" ry="5" fill="#B5B5B5" fill-opacity="0.61"/>
<ellipse cx="277.262" cy="320" rx="5.3942" ry="5" fill="#B5B5B5" fill-opacity="0.61"/>
<ellipse cx="277.262" cy="343" rx="5.3942" ry="5" fill="#B5B5B5" fill-opacity="0.61"/>
<ellipse cx="335.519" cy="297" rx="5.3942" ry="5" fill="#B5B5B5" fill-opacity="0.61"/>
<ellipse cx="335.519" cy="320" rx="5.3942" ry="5" fill="#B5B5B5" fill-opacity="0.61"/>
<ellipse cx="335.519" cy="343" rx="5.3942" ry="5" fill="#B5B5B5" fill-opacity="0.61"/>
<ellipse cx="306.391" cy="297" rx="5.3942" ry="5" fill="#B5B5B5" fill-opacity="0.61"/>
<ellipse cx="306.391" cy="320" rx="5.3942" ry="5" fill="#B5B5B5" fill-opacity="0.61"/>
<ellipse cx="306.391" cy="343" rx="5.3942" ry="5" fill="#B5B5B5" fill-opacity="0.61"/>
<ellipse cx="96.0168" cy="78" rx="5.3942" ry="5" fill="#B5B5B5" fill-opacity="0.61"/>
<ellipse cx="96.0168" cy="101" rx="5.3942" ry="5" fill="#B5B5B5" fill-opacity="0.61"/>
<ellipse cx="96.0168" cy="124" rx="5.3942" ry="5" fill="#B5B5B5" fill-opacity="0.61"/>
<ellipse cx="154.274" cy="78" rx="5.3942" ry="5" fill="#B5B5B5" fill-opacity="0.61"/>
<ellipse cx="154.274" cy="101" rx="5.3942" ry="5" fill="#B5B5B5" fill-opacity="0.61"/>
<ellipse cx="154.274" cy="124" rx="5.3942" ry="5" fill="#B5B5B5" fill-opacity="0.61"/>
<ellipse cx="125.146" cy="78" rx="5.3942" ry="5" fill="#B5B5B5" fill-opacity="0.61"/>
<ellipse cx="125.146" cy="101" rx="5.3942" ry="5" fill="#B5B5B5" fill-opacity="0.61"/>
<ellipse cx="125.146" cy="124" rx="5.3942" ry="5" fill="#B5B5B5" fill-opacity="0.61"/>
<ellipse cx="96.0168" cy="151" rx="5.3942" ry="5" fill="#B5B5B5" fill-opacity="0.61"/>
<ellipse cx="96.0168" cy="174" rx="5.3942" ry="5" fill="#B5B5B5" fill-opacity="0.61"/>
<ellipse cx="96.0168" cy="197" rx="5.3942" ry="5" fill="#B5B5B5" fill-opacity="0.61"/>
<ellipse cx="154.274" cy="151" rx="5.3942" ry="5" fill="#B5B5B5" fill-opacity="0.61"/>
<ellipse cx="154.274" cy="174" rx="5.3942" ry="5" fill="#B5B5B5" fill-opacity="0.61"/>
<ellipse cx="154.274" cy="197" rx="5.3942" ry="5" fill="#B5B5B5" fill-opacity="0.61"/>
<ellipse cx="125.146" cy="151" rx="5.3942" ry="5" fill="#B5B5B5" fill-opacity="0.61"/>
<ellipse cx="125.146" cy="174" rx="5.3942" ry="5" fill="#B5B5B5" fill-opacity="0.61"/>
<ellipse cx="125.146" cy="197" rx="5.3942" ry="5" fill="#B5B5B5" fill-opacity="0.61"/>
<ellipse cx="96.0168" cy="297" rx="5.3942" ry="5" fill="#B5B5B5" fill-opacity="0.61"/>
<ellipse cx="96.0168" cy="320" rx="5.3942" ry="5" fill="#B5B5B5" fill-opacity="0.61"/>
<ellipse cx="96.0168" cy="343" rx="5.3942" ry="5" fill="#B5B5B5" fill-opacity="0.61"/>
<ellipse cx="154.274" cy="297" rx="5.3942" ry="5" fill="#B5B5B5" fill-opacity="0.61"/>
<ellipse cx="154.274" cy="320" rx="5.3942" ry="5" fill="#B5B5B5" fill-opacity="0.61"/>
<ellipse cx="154.274" cy="343" rx="5.3942" ry="5" fill="#B5B5B5" fill-opacity="0.61"/>
<ellipse cx="125.146" cy="297" rx="5.3942" ry="5" fill="#B5B5B5" fill-opacity="0.61"/>
<ellipse cx="125.146" cy="320" rx="5.3942" ry="5" fill="#B5B5B5" fill-opacity="0.61"/>
<ellipse cx="125.146" cy="343" rx="5.3942" ry="5" fill="#B5B5B5" fill-opacity="0.61"/>
<ellipse cx="96.1979" cy="219" rx="5.3942" ry="5" fill="#B5B5B5" fill-opacity="0.61"/>
<ellipse cx="96.1979" cy="242" rx="5.3942" ry="5" fill="#B5B5B5" fill-opacity="0.61"/>
<ellipse cx="96.1979" cy="265" rx="5.3942" ry="5" fill="#B5B5B5" fill-opacity="0.61"/>
<ellipse cx="154.455" cy="219" rx="5.3942" ry="5" fill="#B5B5B5" fill-opacity="0.61"/>
<ellipse cx="154.455" cy="242" rx="5.3942" ry="5" fill="#B5B5B5" fill-opacity="0.61"/>
<ellipse cx="154.455" cy="265" rx="5.3942" ry="5" fill="#B5B5B5" fill-opacity="0.61"/>
<ellipse cx="125.327" cy="219" rx="5.3942" ry="5" fill="#B5B5B5" fill-opacity="0.61"/>
<ellipse cx="125.327" cy="242" rx="5.3942" ry="5" fill="#B5B5B5" fill-opacity="0.61"/>
<ellipse cx="125.327" cy="265" rx="5.3942" ry="5" fill="#B5B5B5" fill-opacity="0.61"/>
</svg>
