<svg width="330" height="336" viewBox="0 0 330 336" fill="none" xmlns="http://www.w3.org/2000/svg">
<ellipse cx="180.617" cy="75.31" rx="5.22015" ry="4.82759" fill="#FADB85" fill-opacity="0.7"/>
<ellipse cx="180.617" cy="97.517" rx="5.22015" ry="4.82759" fill="#FADB85" fill-opacity="0.7"/>
<ellipse cx="180.617" cy="119.724" rx="5.22015" ry="4.82759" fill="#FADB85" fill-opacity="0.7"/>
<ellipse cx="236.995" cy="75.31" rx="5.22015" ry="4.82759" fill="#FADB85" fill-opacity="0.7"/>
<ellipse cx="236.995" cy="97.517" rx="5.22015" ry="4.82759" fill="#FADB85" fill-opacity="0.7"/>
<ellipse cx="236.995" cy="119.724" rx="5.22015" ry="4.82759" fill="#FADB85" fill-opacity="0.7"/>
<ellipse cx="208.806" cy="75.31" rx="5.22015" ry="4.82759" fill="#FADB85" fill-opacity="0.7"/>
<ellipse cx="208.806" cy="97.517" rx="5.22015" ry="4.82759" fill="#FADB85" fill-opacity="0.7"/>
<ellipse cx="208.806" cy="119.724" rx="5.22015" ry="4.82759" fill="#FADB85" fill-opacity="0.7"/>
<ellipse cx="180.617" cy="145.793" rx="5.22015" ry="4.82759" fill="#FADB85" fill-opacity="0.7"/>
<ellipse cx="180.617" cy="168" rx="5.22015" ry="4.82759" fill="#FADB85" fill-opacity="0.7"/>
<ellipse cx="180.617" cy="190.207" rx="5.22015" ry="4.82759" fill="#FADB85" fill-opacity="0.7"/>
<ellipse cx="236.995" cy="145.793" rx="5.22015" ry="4.82759" fill="#FADB85" fill-opacity="0.7"/>
<ellipse cx="236.995" cy="168" rx="5.22015" ry="4.82759" fill="#FADB85" fill-opacity="0.7"/>
<ellipse cx="236.995" cy="190.207" rx="5.22015" ry="4.82759" fill="#FADB85" fill-opacity="0.7"/>
<ellipse cx="208.806" cy="145.793" rx="5.22015" ry="4.82759" fill="#FADB85" fill-opacity="0.7"/>
<ellipse cx="208.806" cy="168" rx="5.22015" ry="4.82759" fill="#FADB85" fill-opacity="0.7"/>
<ellipse cx="208.806" cy="190.207" rx="5.22015" ry="4.82759" fill="#FADB85" fill-opacity="0.7"/>
<ellipse cx="180.617" cy="216.276" rx="5.22015" ry="4.82759" fill="#FADB85" fill-opacity="0.7"/>
<ellipse cx="180.617" cy="238.483" rx="5.22015" ry="4.82759" fill="#FADB85" fill-opacity="0.7"/>
<ellipse cx="180.617" cy="260.69" rx="5.22015" ry="4.82759" fill="#FADB85" fill-opacity="0.7"/>
<ellipse cx="236.995" cy="216.276" rx="5.22015" ry="4.82759" fill="#FADB85" fill-opacity="0.7"/>
<ellipse cx="236.995" cy="238.483" rx="5.22015" ry="4.82759" fill="#FADB85" fill-opacity="0.7"/>
<ellipse cx="236.995" cy="260.69" rx="5.22015" ry="4.82759" fill="#FADB85" fill-opacity="0.7"/>
<ellipse cx="208.806" cy="216.276" rx="5.22015" ry="4.82759" fill="#FADB85" fill-opacity="0.7"/>
<ellipse cx="208.806" cy="238.483" rx="5.22015" ry="4.82759" fill="#FADB85" fill-opacity="0.7"/>
<ellipse cx="208.806" cy="260.69" rx="5.22015" ry="4.82759" fill="#FADB85" fill-opacity="0.7"/>
<ellipse cx="180.617" cy="286.758" rx="5.22015" ry="4.82759" fill="#FADB85" fill-opacity="0.7"/>
<ellipse cx="180.617" cy="308.965" rx="5.22015" ry="4.82759" fill="#FADB85" fill-opacity="0.7"/>
<ellipse cx="180.617" cy="331.172" rx="5.22015" ry="4.82759" fill="#FADB85" fill-opacity="0.7"/>
<ellipse cx="236.995" cy="286.758" rx="5.22015" ry="4.82759" fill="#FADB85" fill-opacity="0.7"/>
<ellipse cx="236.995" cy="308.965" rx="5.22015" ry="4.82759" fill="#FADB85" fill-opacity="0.7"/>
<ellipse cx="236.995" cy="331.172" rx="5.22015" ry="4.82759" fill="#FADB85" fill-opacity="0.7"/>
<ellipse cx="208.806" cy="286.758" rx="5.22015" ry="4.82759" fill="#FADB85" fill-opacity="0.7"/>
<ellipse cx="208.806" cy="308.965" rx="5.22015" ry="4.82759" fill="#FADB85" fill-opacity="0.7"/>
<ellipse cx="208.806" cy="331.172" rx="5.22015" ry="4.82759" fill="#FADB85" fill-opacity="0.7"/>
<ellipse cx="5.22015" cy="75.31" rx="5.22015" ry="4.82759" fill="#FADB85" fill-opacity="0.7"/>
<ellipse cx="5.22015" cy="97.517" rx="5.22015" ry="4.82759" fill="#FADB85" fill-opacity="0.7"/>
<ellipse cx="5.22015" cy="119.724" rx="5.22015" ry="4.82759" fill="#FADB85" fill-opacity="0.7"/>
<ellipse cx="61.5976" cy="75.31" rx="5.22015" ry="4.82759" fill="#FADB85" fill-opacity="0.7"/>
<ellipse cx="61.5976" cy="97.517" rx="5.22015" ry="4.82759" fill="#FADB85" fill-opacity="0.7"/>
<ellipse cx="61.5976" cy="119.724" rx="5.22015" ry="4.82759" fill="#FADB85" fill-opacity="0.7"/>
<ellipse cx="33.4091" cy="75.31" rx="5.22015" ry="4.82759" fill="#FADB85" fill-opacity="0.7"/>
<ellipse cx="33.4091" cy="97.517" rx="5.22015" ry="4.82759" fill="#FADB85" fill-opacity="0.7"/>
<ellipse cx="33.4091" cy="119.724" rx="5.22015" ry="4.82759" fill="#FADB85" fill-opacity="0.7"/>
<ellipse cx="5.22015" cy="145.793" rx="5.22015" ry="4.82759" fill="#FADB85" fill-opacity="0.7"/>
<ellipse cx="5.22015" cy="168" rx="5.22015" ry="4.82759" fill="#FADB85" fill-opacity="0.7"/>
<ellipse cx="5.22015" cy="190.207" rx="5.22015" ry="4.82759" fill="#FADB85" fill-opacity="0.7"/>
<ellipse cx="61.5976" cy="145.793" rx="5.22015" ry="4.82759" fill="#FADB85" fill-opacity="0.7"/>
<ellipse cx="61.5976" cy="168" rx="5.22015" ry="4.82759" fill="#FADB85" fill-opacity="0.7"/>
<ellipse cx="61.5976" cy="190.207" rx="5.22015" ry="4.82759" fill="#FADB85" fill-opacity="0.7"/>
<ellipse cx="33.4091" cy="145.793" rx="5.22015" ry="4.82759" fill="#FADB85" fill-opacity="0.7"/>
<ellipse cx="33.4091" cy="168" rx="5.22015" ry="4.82759" fill="#FADB85" fill-opacity="0.7"/>
<ellipse cx="33.4091" cy="190.207" rx="5.22015" ry="4.82759" fill="#FADB85" fill-opacity="0.7"/>
<ellipse cx="5.22015" cy="216.276" rx="5.22015" ry="4.82759" fill="#FADB85" fill-opacity="0.7"/>
<ellipse cx="5.22015" cy="238.483" rx="5.22015" ry="4.82759" fill="#FADB85" fill-opacity="0.7"/>
<ellipse cx="5.22015" cy="260.69" rx="5.22015" ry="4.82759" fill="#FADB85" fill-opacity="0.7"/>
<ellipse cx="61.5976" cy="216.276" rx="5.22015" ry="4.82759" fill="#FADB85" fill-opacity="0.7"/>
<ellipse cx="61.5976" cy="238.483" rx="5.22015" ry="4.82759" fill="#FADB85" fill-opacity="0.7"/>
<ellipse cx="61.5976" cy="260.69" rx="5.22015" ry="4.82759" fill="#FADB85" fill-opacity="0.7"/>
<ellipse cx="33.4091" cy="216.276" rx="5.22015" ry="4.82759" fill="#FADB85" fill-opacity="0.7"/>
<ellipse cx="33.4091" cy="238.483" rx="5.22015" ry="4.82759" fill="#FADB85" fill-opacity="0.7"/>
<ellipse cx="33.4091" cy="260.69" rx="5.22015" ry="4.82759" fill="#FADB85" fill-opacity="0.7"/>
<ellipse cx="5.22015" cy="286.758" rx="5.22015" ry="4.82759" fill="#FADB85" fill-opacity="0.7"/>
<ellipse cx="5.22015" cy="308.965" rx="5.22015" ry="4.82759" fill="#FADB85" fill-opacity="0.7"/>
<ellipse cx="5.22015" cy="331.172" rx="5.22015" ry="4.82759" fill="#FADB85" fill-opacity="0.7"/>
<ellipse cx="61.5976" cy="286.758" rx="5.22015" ry="4.82759" fill="#FADB85" fill-opacity="0.7"/>
<ellipse cx="61.5976" cy="308.965" rx="5.22015" ry="4.82759" fill="#FADB85" fill-opacity="0.7"/>
<ellipse cx="61.5976" cy="331.172" rx="5.22015" ry="4.82759" fill="#FADB85" fill-opacity="0.7"/>
<ellipse cx="33.4091" cy="286.758" rx="5.22015" ry="4.82759" fill="#FADB85" fill-opacity="0.7"/>
<ellipse cx="33.4091" cy="308.965" rx="5.22015" ry="4.82759" fill="#FADB85" fill-opacity="0.7"/>
<ellipse cx="33.4091" cy="331.172" rx="5.22015" ry="4.82759" fill="#FADB85" fill-opacity="0.7"/>
<ellipse cx="5.22015" cy="4.82759" rx="5.22015" ry="4.82759" fill="#FADB85" fill-opacity="0.7"/>
<ellipse cx="5.22015" cy="27.0346" rx="5.22015" ry="4.82759" fill="#FADB85" fill-opacity="0.7"/>
<ellipse cx="5.22015" cy="49.2416" rx="5.22015" ry="4.82759" fill="#FADB85" fill-opacity="0.7"/>
<ellipse cx="61.5976" cy="4.82759" rx="5.22015" ry="4.82759" fill="#FADB85" fill-opacity="0.7"/>
<ellipse cx="61.5976" cy="27.0346" rx="5.22015" ry="4.82759" fill="#FADB85" fill-opacity="0.7"/>
<ellipse cx="61.5976" cy="49.2416" rx="5.22015" ry="4.82759" fill="#FADB85" fill-opacity="0.7"/>
<ellipse cx="33.4091" cy="4.82759" rx="5.22015" ry="4.82759" fill="#FADB85" fill-opacity="0.7"/>
<ellipse cx="33.4091" cy="27.0346" rx="5.22015" ry="4.82759" fill="#FADB85" fill-opacity="0.7"/>
<ellipse cx="33.4091" cy="49.2416" rx="5.22015" ry="4.82759" fill="#FADB85" fill-opacity="0.7"/>
<ellipse cx="92.9189" cy="4.82759" rx="5.22015" ry="4.82759" fill="#FADB85" fill-opacity="0.7"/>
<ellipse cx="92.9189" cy="27.0346" rx="5.22015" ry="4.82759" fill="#FADB85" fill-opacity="0.7"/>
<ellipse cx="92.9189" cy="49.2416" rx="5.22015" ry="4.82759" fill="#FADB85" fill-opacity="0.7"/>
<ellipse cx="149.296" cy="4.82759" rx="5.22015" ry="4.82759" fill="#FADB85" fill-opacity="0.7"/>
<ellipse cx="149.296" cy="27.0346" rx="5.22015" ry="4.82759" fill="#FADB85" fill-opacity="0.7"/>
<ellipse cx="149.296" cy="49.2416" rx="5.22015" ry="4.82759" fill="#FADB85" fill-opacity="0.7"/>
<ellipse cx="121.108" cy="4.82759" rx="5.22015" ry="4.82759" fill="#FADB85" fill-opacity="0.7"/>
<ellipse cx="121.108" cy="27.0346" rx="5.22015" ry="4.82759" fill="#FADB85" fill-opacity="0.7"/>
<ellipse cx="121.108" cy="49.2416" rx="5.22015" ry="4.82759" fill="#FADB85" fill-opacity="0.7"/>
<ellipse cx="180.617" cy="4.82759" rx="5.22015" ry="4.82759" fill="#FADB85" fill-opacity="0.7"/>
<ellipse cx="180.617" cy="27.0346" rx="5.22015" ry="4.82759" fill="#FADB85" fill-opacity="0.7"/>
<ellipse cx="180.617" cy="49.2416" rx="5.22015" ry="4.82759" fill="#FADB85" fill-opacity="0.7"/>
<ellipse cx="236.995" cy="4.82759" rx="5.22015" ry="4.82759" fill="#FADB85" fill-opacity="0.7"/>
<ellipse cx="236.995" cy="27.0346" rx="5.22015" ry="4.82759" fill="#FADB85" fill-opacity="0.7"/>
<ellipse cx="236.995" cy="49.2416" rx="5.22015" ry="4.82759" fill="#FADB85" fill-opacity="0.7"/>
<ellipse cx="208.806" cy="4.82759" rx="5.22015" ry="4.82759" fill="#FADB85" fill-opacity="0.7"/>
<ellipse cx="208.806" cy="27.0346" rx="5.22015" ry="4.82759" fill="#FADB85" fill-opacity="0.7"/>
<ellipse cx="208.806" cy="49.2416" rx="5.22015" ry="4.82759" fill="#FADB85" fill-opacity="0.7"/>
<ellipse cx="268.316" cy="4.82759" rx="5.22015" ry="4.82759" fill="#FADB85" fill-opacity="0.7"/>
<ellipse cx="268.316" cy="27.0346" rx="5.22015" ry="4.82759" fill="#FADB85" fill-opacity="0.7"/>
<ellipse cx="268.316" cy="49.2416" rx="5.22015" ry="4.82759" fill="#FADB85" fill-opacity="0.7"/>
<ellipse cx="324.693" cy="4.82759" rx="5.22015" ry="4.82759" fill="#FADB85" fill-opacity="0.7"/>
<ellipse cx="324.693" cy="27.0346" rx="5.22015" ry="4.82759" fill="#FADB85" fill-opacity="0.7"/>
<ellipse cx="324.693" cy="49.2416" rx="5.22015" ry="4.82759" fill="#FADB85" fill-opacity="0.7"/>
<ellipse cx="296.505" cy="4.82759" rx="5.22015" ry="4.82759" fill="#FADB85" fill-opacity="0.7"/>
<ellipse cx="296.505" cy="27.0346" rx="5.22015" ry="4.82759" fill="#FADB85" fill-opacity="0.7"/>
<ellipse cx="296.505" cy="49.2416" rx="5.22015" ry="4.82759" fill="#FADB85" fill-opacity="0.7"/>
<ellipse cx="268.316" cy="75.31" rx="5.22015" ry="4.82759" fill="#FADB85" fill-opacity="0.7"/>
<ellipse cx="268.316" cy="97.517" rx="5.22015" ry="4.82759" fill="#FADB85" fill-opacity="0.7"/>
<ellipse cx="268.316" cy="119.724" rx="5.22015" ry="4.82759" fill="#FADB85" fill-opacity="0.7"/>
<ellipse cx="324.693" cy="75.31" rx="5.22015" ry="4.82759" fill="#FADB85" fill-opacity="0.7"/>
<ellipse cx="324.693" cy="97.517" rx="5.22015" ry="4.82759" fill="#FADB85" fill-opacity="0.7"/>
<ellipse cx="324.693" cy="119.724" rx="5.22015" ry="4.82759" fill="#FADB85" fill-opacity="0.7"/>
<ellipse cx="296.505" cy="75.31" rx="5.22015" ry="4.82759" fill="#FADB85" fill-opacity="0.7"/>
<ellipse cx="296.505" cy="97.517" rx="5.22015" ry="4.82759" fill="#FADB85" fill-opacity="0.7"/>
<ellipse cx="296.505" cy="119.724" rx="5.22015" ry="4.82759" fill="#FADB85" fill-opacity="0.7"/>
<ellipse cx="268.316" cy="145.793" rx="5.22015" ry="4.82759" fill="#FADB85" fill-opacity="0.7"/>
<ellipse cx="268.316" cy="168" rx="5.22015" ry="4.82759" fill="#FADB85" fill-opacity="0.7"/>
<ellipse cx="268.316" cy="190.207" rx="5.22015" ry="4.82759" fill="#FADB85" fill-opacity="0.7"/>
<ellipse cx="324.693" cy="145.793" rx="5.22015" ry="4.82759" fill="#FADB85" fill-opacity="0.7"/>
<ellipse cx="324.693" cy="168" rx="5.22015" ry="4.82759" fill="#FADB85" fill-opacity="0.7"/>
<ellipse cx="324.693" cy="190.207" rx="5.22015" ry="4.82759" fill="#FADB85" fill-opacity="0.7"/>
<ellipse cx="296.505" cy="145.793" rx="5.22015" ry="4.82759" fill="#FADB85" fill-opacity="0.7"/>
<ellipse cx="296.505" cy="168" rx="5.22015" ry="4.82759" fill="#FADB85" fill-opacity="0.7"/>
<ellipse cx="296.505" cy="190.207" rx="5.22015" ry="4.82759" fill="#FADB85" fill-opacity="0.7"/>
<ellipse cx="268.316" cy="216.276" rx="5.22015" ry="4.82759" fill="#FADB85" fill-opacity="0.7"/>
<ellipse cx="268.316" cy="238.483" rx="5.22015" ry="4.82759" fill="#FADB85" fill-opacity="0.7"/>
<ellipse cx="268.316" cy="260.69" rx="5.22015" ry="4.82759" fill="#FADB85" fill-opacity="0.7"/>
<ellipse cx="324.693" cy="216.276" rx="5.22015" ry="4.82759" fill="#FADB85" fill-opacity="0.7"/>
<ellipse cx="324.693" cy="238.483" rx="5.22015" ry="4.82759" fill="#FADB85" fill-opacity="0.7"/>
<ellipse cx="324.693" cy="260.69" rx="5.22015" ry="4.82759" fill="#FADB85" fill-opacity="0.7"/>
<ellipse cx="296.505" cy="216.276" rx="5.22015" ry="4.82759" fill="#FADB85" fill-opacity="0.7"/>
<ellipse cx="296.505" cy="238.483" rx="5.22015" ry="4.82759" fill="#FADB85" fill-opacity="0.7"/>
<ellipse cx="296.505" cy="260.69" rx="5.22015" ry="4.82759" fill="#FADB85" fill-opacity="0.7"/>
<ellipse cx="268.316" cy="286.758" rx="5.22015" ry="4.82759" fill="#FADB85" fill-opacity="0.7"/>
<ellipse cx="268.316" cy="308.965" rx="5.22015" ry="4.82759" fill="#FADB85" fill-opacity="0.7"/>
<ellipse cx="268.316" cy="331.172" rx="5.22015" ry="4.82759" fill="#FADB85" fill-opacity="0.7"/>
<ellipse cx="324.693" cy="286.758" rx="5.22015" ry="4.82759" fill="#FADB85" fill-opacity="0.7"/>
<ellipse cx="324.693" cy="308.965" rx="5.22015" ry="4.82759" fill="#FADB85" fill-opacity="0.7"/>
<ellipse cx="324.693" cy="331.172" rx="5.22015" ry="4.82759" fill="#FADB85" fill-opacity="0.7"/>
<ellipse cx="296.505" cy="286.758" rx="5.22015" ry="4.82759" fill="#FADB85" fill-opacity="0.7"/>
<ellipse cx="296.505" cy="308.965" rx="5.22015" ry="4.82759" fill="#FADB85" fill-opacity="0.7"/>
<ellipse cx="296.505" cy="331.172" rx="5.22015" ry="4.82759" fill="#FADB85" fill-opacity="0.7"/>
<ellipse cx="92.9189" cy="75.31" rx="5.22015" ry="4.82759" fill="#FADB85" fill-opacity="0.7"/>
<ellipse cx="92.9189" cy="97.517" rx="5.22015" ry="4.82759" fill="#FADB85" fill-opacity="0.7"/>
<ellipse cx="92.9189" cy="119.724" rx="5.22015" ry="4.82759" fill="#FADB85" fill-opacity="0.7"/>
<ellipse cx="149.296" cy="75.31" rx="5.22015" ry="4.82759" fill="#FADB85" fill-opacity="0.7"/>
<ellipse cx="149.296" cy="97.517" rx="5.22015" ry="4.82759" fill="#FADB85" fill-opacity="0.7"/>
<ellipse cx="149.296" cy="119.724" rx="5.22015" ry="4.82759" fill="#FADB85" fill-opacity="0.7"/>
<ellipse cx="121.108" cy="75.31" rx="5.22015" ry="4.82759" fill="#FADB85" fill-opacity="0.7"/>
<ellipse cx="121.108" cy="97.517" rx="5.22015" ry="4.82759" fill="#FADB85" fill-opacity="0.7"/>
<ellipse cx="121.108" cy="119.724" rx="5.22015" ry="4.82759" fill="#FADB85" fill-opacity="0.7"/>
<ellipse cx="92.9189" cy="145.793" rx="5.22015" ry="4.82759" fill="#FADB85" fill-opacity="0.7"/>
<ellipse cx="92.9189" cy="168" rx="5.22015" ry="4.82759" fill="#FADB85" fill-opacity="0.7"/>
<ellipse cx="92.9189" cy="190.207" rx="5.22015" ry="4.82759" fill="#FADB85" fill-opacity="0.7"/>
<ellipse cx="149.296" cy="145.793" rx="5.22015" ry="4.82759" fill="#FADB85" fill-opacity="0.7"/>
<ellipse cx="149.296" cy="168" rx="5.22015" ry="4.82759" fill="#FADB85" fill-opacity="0.7"/>
<ellipse cx="149.296" cy="190.207" rx="5.22015" ry="4.82759" fill="#FADB85" fill-opacity="0.7"/>
<ellipse cx="121.108" cy="145.793" rx="5.22015" ry="4.82759" fill="#FADB85" fill-opacity="0.7"/>
<ellipse cx="121.108" cy="168" rx="5.22015" ry="4.82759" fill="#FADB85" fill-opacity="0.7"/>
<ellipse cx="121.108" cy="190.207" rx="5.22015" ry="4.82759" fill="#FADB85" fill-opacity="0.7"/>
<ellipse cx="92.9189" cy="286.758" rx="5.22015" ry="4.82759" fill="#FADB85" fill-opacity="0.7"/>
<ellipse cx="92.9189" cy="308.965" rx="5.22015" ry="4.82759" fill="#FADB85" fill-opacity="0.7"/>
<ellipse cx="92.9189" cy="331.172" rx="5.22015" ry="4.82759" fill="#FADB85" fill-opacity="0.7"/>
<ellipse cx="149.296" cy="286.758" rx="5.22015" ry="4.82759" fill="#FADB85" fill-opacity="0.7"/>
<ellipse cx="149.296" cy="308.965" rx="5.22015" ry="4.82759" fill="#FADB85" fill-opacity="0.7"/>
<ellipse cx="149.296" cy="331.172" rx="5.22015" ry="4.82759" fill="#FADB85" fill-opacity="0.7"/>
<ellipse cx="121.108" cy="286.758" rx="5.22015" ry="4.82759" fill="#FADB85" fill-opacity="0.7"/>
<ellipse cx="121.108" cy="308.965" rx="5.22015" ry="4.82759" fill="#FADB85" fill-opacity="0.7"/>
<ellipse cx="121.108" cy="331.172" rx="5.22015" ry="4.82759" fill="#FADB85" fill-opacity="0.7"/>
<ellipse cx="93.0942" cy="211.449" rx="5.22015" ry="4.82759" fill="#FADB85" fill-opacity="0.7"/>
<ellipse cx="93.0942" cy="233.656" rx="5.22015" ry="4.82759" fill="#FADB85" fill-opacity="0.7"/>
<ellipse cx="93.0942" cy="255.863" rx="5.22015" ry="4.82759" fill="#FADB85" fill-opacity="0.7"/>
<ellipse cx="149.472" cy="211.449" rx="5.22015" ry="4.82759" fill="#FADB85" fill-opacity="0.7"/>
<ellipse cx="149.472" cy="233.656" rx="5.22015" ry="4.82759" fill="#FADB85" fill-opacity="0.7"/>
<ellipse cx="149.472" cy="255.863" rx="5.22015" ry="4.82759" fill="#FADB85" fill-opacity="0.7"/>
<ellipse cx="121.283" cy="211.449" rx="5.22015" ry="4.82759" fill="#FADB85" fill-opacity="0.7"/>
<ellipse cx="121.283" cy="233.656" rx="5.22015" ry="4.82759" fill="#FADB85" fill-opacity="0.7"/>
<ellipse cx="121.283" cy="255.863" rx="5.22015" ry="4.82759" fill="#FADB85" fill-opacity="0.7"/>
</svg>
