<svg viewBox="0 0 200 200" xmlns="http://www.w3.org/2000/svg">
  <path fill="#FFEDC6" d="M34.6,-68.2C40.7,-56.3,38.8,-38.8,38.1,-26.5C37.5,-14.2,38.1,-7.1,44.1,3.5C50.2,14.1,61.7,28.2,58.8,34.4C56,40.6,38.8,38.9,26.6,38.2C14.3,37.5,7.2,37.7,-1.4,40.1C-9.9,42.5,-19.8,47,-31.8,47.6C-43.8,48.2,-58,44.9,-64.9,36.3C-71.7,27.7,-71.4,13.9,-68.6,1.6C-65.8,-10.7,-60.6,-21.3,-52.8,-28.2C-44.9,-35.1,-34.4,-38.2,-25.1,-48.3C-15.9,-58.4,-7.9,-75.6,3.1,-81C14.2,-86.4,28.4,-80.1,34.6,-68.2Z" transform="translate(100 100)" />
</svg>
