<?xml version="1.0" encoding="iso-8859-1"?>
<!-- Generator: Adobe Illustrator 19.0.0, SVG Export Plug-In . SVG Version: 6.00 Build 0)  -->
<svg version="1.1" id="Layer_1" xmlns="http://www.w3.org/2000/svg" xmlns:xlink="http://www.w3.org/1999/xlink" x="0px" y="0px"
	 viewBox="0 0 512 512" style="enable-background:new 0 0 512 512;" xml:space="preserve">
<g>
	<g>
		<g>
			<path d="M469.333,0H42.667C19.14,0,0,19.14,0,42.667v426.667C0,492.86,19.14,512,42.667,512h196.267V341.333h-68.267v-102.4
				h68.267v-42.667c0-57.489,44.672-106.197,101.7-110.908l94.566-0.026v102.4h-85.333c-4.702,0-8.533,3.831-8.533,8.533v42.667
				h85.333v102.4h-85.333V512h128C492.86,512,512,492.86,512,469.333V42.667C512,19.14,492.86,0,469.333,0z"/>
			<path d="M409.6,256h-85.333v-59.733c0-14.114,11.486-25.6,25.6-25.6h68.267V102.4h-76.8C293.794,106.351,256,147.593,256,196.267
				V256h-68.267v68.267H256V512h68.267V324.267H409.6V256z"/>
		</g>
	</g>
</g>
<g>
</g>
<g>
</g>
<g>
</g>
<g>
</g>
<g>
</g>
<g>
</g>
<g>
</g>
<g>
</g>
<g>
</g>
<g>
</g>
<g>
</g>
<g>
</g>
<g>
</g>
<g>
</g>
<g>
</g>
</svg>
